<?xml version="1.0" encoding="UTF-8"?>
<svg id="Layer_2" data-name="Layer 2" xmlns="http://www.w3.org/2000/svg" viewBox="0 0 183.93 127.68">
  <g id="Layer_1-2" data-name="Layer 1">
    <g>
      <path d="M97.44,108.89c0,3.99-.18,6.34-.54,7.06-.36.72-1.63,1.08-3.8,1.08-5.15.09-7.73.59-7.73,1.49,0,.81.81,1.22,2.44,1.22h22.23c1.9,0,2.85-.5,2.85-1.5,0-.9-1.49-1.35-4.47-1.35-3.71,0-5.88-.59-6.51-1.76-.27-.18-.41-8.54-.41-25.08v-4.05c-1.24,2.49-2.6,4.94-4.07,7.32v15.56Z"/>
      <path d="M181.22,117.45h-.81c-4.7,0-7.64-.41-8.81-1.22-.72-.63-1.08-2.76-1.08-6.39v-63.22c0-9.97.22-15.27.68-15.91.81-1.09,2.3-1.81,4.47-2.18.9-.18,2.62-.27,5.15-.27,1.54,0,2.31-.45,2.31-1.36,0-.54-.23-.95-.68-1.22-.45-.27-2.18-.41-5.18-.41l-20.43.13c-.64,1.67-1.36,3.79-2.18,6.34l-8.85,27.79-5.45,17.1c-1.79,5.69-3.54,11.48-5.25,17.35-9.49-26.23-15.27-42.06-17.33-47.48-.82-2.24-1.58-4.28-2.27-6.16-1.09,3.7-2.05,7.45-2.9,11.19-.78,3.57-1.58,7.14-2.49,10.68,10.23,27.73,16.53,45.34,18.9,52.81.72,2.17,1.4,3.25,2.03,3.25.54,0,1.45-2.12,2.71-6.37l6.3-21.58c6.9-21.95,12.16-38.39,15.8-49.32.99-3.07,1.49-4.65,1.49-4.75v70.34c0,5.61-.23,8.64-.68,9.1-1,1-3.8,1.49-8.4,1.49-2.62,0-3.93.45-3.93,1.36,0,.81.95,1.22,2.85,1.22h33.89c1.9,0,2.85-.38,2.85-1.15s-.91-1.15-2.71-1.15Z"/>
      <path d="M115.52,40.33c3.83-13.01,9.34-25.54,17.96-36.09.13-.14-.02-.38-.2-.33-12.01,2.03-24.09-.49-35.96-2.36-12.09-1.87-25.19-3.07-36.64,2.64-11.81,5.4-20.54,18.84-14.99,31.66,4.99,11.33,17.05,18.65,29.21,19.24.11,0,.21-.08.21-.19,0-.11-.08-.2-.19-.21-6.01-.17-11.95-2.19-16.84-5.65-11.66-8.21-15.94-22.13-5.5-33.29,6.87-7.44,16.71-11,26.69-12.26,17.73-2.33,35.52,3.33,53.24.92-15.38,9.59-23.69,27.16-29.07,43.78-4.88,16.54-8.93,33.42-17.85,48.29-5.59,9.93-13.37,18.56-23.39,24.2-15.05,8.3-32.78,8.95-45.04-4.48-8.56-9.45-13.71-22.66-10.46-35.36,2.55-9.31,8.82-17.33,17.1-22.39,4.16-2.68,8.98-4.43,13.88-5.21l2.15-.31c.24-.02.25-.38,0-.4-5.94-.47-12.03.79-17.43,3.3-10.8,4.95-19.32,15.23-21.71,26.98-2.63,13.45,2.53,28.3,13.49,36.68,4.21,3.2,9.21,5.56,14.36,6.76,17.67,4.36,36.4-1.54,50.66-12.26,7.32-5.64,13.4-12.78,18.26-20.64,1.47-2.38,2.82-4.83,4.07-7.32.11-.22.23-.44.34-.67,3.76-7.39,6.26-15.21,8.28-23.14"/>
    </g>
  </g>
</svg>